<?xml version="1.0" encoding="utf-8"?>
<!-- Generator: Adobe Illustrator 16.0.0, SVG Export Plug-In . SVG Version: 6.00 Build 0)  -->
<!DOCTYPE svg PUBLIC "-//W3C//DTD SVG 1.1//EN" "http://www.w3.org/Graphics/SVG/1.1/DTD/svg11.dtd">
<svg version="1.1" id="Capa_1" xmlns="http://www.w3.org/2000/svg" xmlns:xlink="http://www.w3.org/1999/xlink" x="0px" y="0px"
	 width="200px" height="200px" viewBox="0 0 200 200" enable-background="new 0 0 200 200" xml:space="preserve">
<g id="_x34_G">
	<g>
		<g>
			<g>
				<path fill="#5CD2ED" d="M149.6,114.8c0-30.8-24.9-55.7-55.7-55.8c-1.9,0-3.5-1.6-3.5-3.5c0-2,1.6-3.5,3.5-3.5
					c34.7,0,62.8,28.1,62.8,62.8c0,1.9-1.6,3.5-3.5,3.5C151.2,118.3,149.6,116.7,149.6,114.8"/>
				<path fill="#5CD2ED" d="M125.5,114.2c0-17.5-14.2-31.7-31.7-31.7c-2,0-3.5-1.6-3.5-3.5s1.6-3.5,3.5-3.5
					c21.4,0,38.8,17.3,38.8,38.8c0,1.9-1.6,3.5-3.5,3.5C127.1,117.8,125.5,116.2,125.5,114.2"/>
			</g>
			<g>
				<path fill="#5CD2ED" d="M107.4,123.9h-9.1c-1.9,0-3.4,1.5-3.4,3.4c0,1.9,1.5,3.4,3.4,3.4h5.7v9.8c-1.8,0.4-3.6,0.6-5.8,0.6
					c-9.4-0.3-13.6-5.2-13.9-14.4c0.1-8.1,5.9-14,13.9-14.1c3.2,0,6,0.3,8.1,1c1.8,0.6,3.7-0.3,4.4-2.1c0.6-1.8-0.3-3.8-2.1-4.4l0,0
					c-3.3-1.1-6.8-1.4-10.3-1.4c-11.7,0-20.8,9.3-20.8,20.9c0,5.9,1.8,11.4,5.4,15.2c3.6,3.9,9,6,15.2,6h0.1c3.7,0,6.9-0.5,10.2-1.6
					c1.4-0.4,2.4-1.8,2.4-3.3V127c0-0.9-0.4-1.8-1-2.4C109.2,124.3,108.3,123.9,107.4,123.9"/>
			</g>
		</g>
	</g>
	<path fill="#5CD2ED" d="M64.7,148c-1.8,0-3.2-1.5-3.2-3.3v-7.4H46.6c-1.2,0-2.3-0.7-2.9-1.8c-0.6-1.1-0.4-2.4,0.3-3.4l18-24.5
		c0.8-1.1,2.3-1.6,3.6-1.2c1.3,0.4,2.2,1.7,2.2,3.1v21.4h3.5c1.8,0,3.3,1.5,3.3,3.2c0,1.8-1.5,3.3-3.3,3.3h-3.5v7.4
		C67.9,146.6,66.5,148,64.7,148L64.7,148z M53,130.9h8.4v-11.4L53,130.9L53,130.9z"/>
</g>
<path id="CIRCULO_3_" fill="#5CD2ED" d="M100,196.9c53.4,0,96.9-43.5,96.9-96.9c0-53.4-43.5-96.9-96.9-96.9
	C46.6,3.1,3.1,46.6,3.1,100C3.1,153.4,46.6,196.9,100,196.9 M100,199.5C45,199.5,0.5,155,0.5,100S45,0.5,100,0.5S199.5,45,199.5,100
	S155,199.5,100,199.5L100,199.5L100,199.5z"/>
</svg>
